<?xml version="1.0" standalone="no"?>
<!DOCTYPE svg PUBLIC "-//W3C//DTD SVG 20010904//EN"
 "http://www.w3.org/TR/2001/REC-SVG-20010904/DTD/svg10.dtd">
<svg version="1.0" xmlns="http://www.w3.org/2000/svg"
 width="214.000000pt" height="245.000000pt" viewBox="0 0 214.000000 245.000000"
 preserveAspectRatio="xMidYMid meet">
<metadata>
Created by potrace 1.10, written by Peter Selinger 2001-2011
</metadata>
<g transform="translate(0.000000,245.000000) scale(0.100000,-0.100000)"
fill="#000000" stroke="none">
<path d="M1073 2430 c-94 -20 -267 -111 -341 -180 -66 -62 -102 -141 -104
-230 -1 -31 -9 -70 -20 -91 -30 -59 -41 -144 -36 -297 4 -111 2 -145 -8 -149
-17 -6 -17 -131 0 -158 7 -11 16 -33 20 -49 4 -15 9 -26 11 -24 3 2 -2 30 -10
62 -20 74 -19 100 0 92 21 -8 19 4 -5 29 -19 20 -19 23 -5 35 32 26 36 6 41
-210 2 -100 21 -174 75 -289 22 -47 39 -94 38 -105 0 -12 -2 -47 -2 -78 l-2
-57 65 -66 c36 -36 84 -77 107 -90 46 -28 53 -30 53 -15 0 6 -5 10 -11 10 -13
0 -72 44 -114 85 -53 52 -78 95 -82 144 l-4 46 48 -50 c118 -123 216 -175 331
-175 66 0 114 13 173 45 14 8 29 12 33 8 3 -3 6 -2 6 4 0 5 11 23 26 39 l25
29 -12 -30 c-7 -16 -17 -37 -23 -45 -6 -8 9 3 33 25 57 54 82 97 80 137 -2 20
10 59 28 98 31 65 70 194 77 260 3 19 5 37 5 40 3 16 21 -30 21 -53 0 -16 4
-26 10 -22 14 9 12 48 -4 70 -11 16 -11 21 0 33 8 7 14 28 14 45 0 18 4 47 9
65 6 18 6 45 1 61 -5 19 -5 31 2 33 17 6 -1 68 -20 68 -12 0 -13 -3 -5 -11 8
-8 8 -18 1 -35 -16 -35 -32 -30 -24 7 17 87 18 266 2 464 -16 192 -20 215 -47
271 -58 123 -186 204 -332 210 -45 2 -101 -1 -124 -6z m91 -27 c4 -4 -3 -16
-16 -26 -19 -16 -17 -15 13 2 44 26 71 28 62 5 -5 -14 -3 -15 16 -5 23 13 61
6 61 -11 0 -5 7 -8 15 -4 8 3 15 1 15 -5 0 -6 4 -8 9 -5 5 3 14 -1 21 -9 7 -8
18 -15 26 -15 7 0 20 -10 28 -22 9 -12 16 -19 16 -15 0 5 7 2 15 -7 8 -8 15
-20 15 -26 0 -6 7 -13 15 -16 8 -4 12 -10 9 -15 -3 -5 -1 -9 5 -9 13 0 33 -98
36 -177 2 -34 6 -67 10 -73 12 -19 -5 -68 -26 -73 -14 -4 -19 0 -19 15 0 10
-4 17 -9 14 -5 -3 -11 8 -15 25 -3 18 -11 29 -18 27 -19 -6 -22 -47 -5 -66 8
-9 17 -25 20 -34 4 -10 15 -18 24 -18 20 0 48 -57 31 -62 -5 -2 -1 -25 10 -53
21 -56 37 -299 22 -339 -4 -13 -11 -49 -14 -82 -9 -86 -22 -155 -34 -185 -6
-15 -8 -44 -5 -65 3 -26 -1 -46 -11 -59 -15 -20 -15 -20 -16 2 0 12 -4 24 -9
27 -11 7 -41 -66 -32 -79 3 -5 7 0 9 12 4 26 17 30 26 8 5 -15 -17 -88 -33
-109 -4 -6 -11 -24 -15 -41 -10 -40 -95 -119 -168 -156 -32 -16 -58 -26 -58
-23 0 4 -6 2 -12 -4 -18 -14 -141 -9 -146 6 -2 7 -8 10 -13 7 -8 -6 -72 21
-114 48 -61 38 -107 95 -151 186 -26 53 -53 107 -60 121 -23 46 -42 110 -34
115 5 3 11 -8 15 -25 8 -36 24 -41 17 -5 -2 14 -13 31 -22 38 -21 15 -29 53
-35 157 -2 41 -7 107 -12 145 -10 90 -10 221 1 264 6 24 5 32 -3 27 -7 -4 -11
1 -11 13 0 12 7 21 16 21 8 0 12 5 9 10 -4 6 -11 8 -16 5 -12 -8 -11 16 1 35
6 10 10 11 10 3 0 -7 5 -13 10 -13 6 0 10 17 10 39 0 80 83 214 135 217 27 1
105 37 105 47 0 4 4 6 9 3 17 -11 61 12 55 29 -9 23 -15 22 -151 -41 -28 -13
-56 -24 -62 -24 -5 0 -17 -10 -25 -21 -9 -14 -21 -19 -31 -15 -21 7 -13 54 17
106 24 41 96 110 114 110 7 0 19 8 26 18 17 23 45 41 33 21 -8 -12 -6 -12 8 0
9 7 17 19 17 26 0 18 30 27 45 15 10 -8 16 -8 22 2 4 7 15 19 25 26 22 17 33
-2 12 -22 -20 -21 -10 -20 21 0 14 9 23 19 21 23 -3 4 -1 13 5 21 7 12 9 11 9
-4 0 -18 1 -18 20 -1 24 22 26 8 4 -23 -13 -19 -13 -22 0 -22 14 0 33 36 28
53 -1 5 2 6 7 3 5 -4 12 -2 16 4 7 12 19 13 29 3z m450 -988 c3 -8 0 -14 -7
-12 -8 1 -11 -9 -9 -32 5 -43 -6 -101 -18 -101 -11 0 -14 143 -3 153 11 12 31
8 37 -8z"/>
<path d="M1002 2162 c-13 -9 -25 -52 -14 -52 16 0 28 16 29 38 2 25 2 25 -15
14z"/>
<path d="M1049 2148 c-1 -7 -1 -17 0 -22 1 -5 -4 -13 -11 -17 -13 -9 -11 -9
19 -9 4 0 8 9 8 20 0 11 5 19 10 17 6 -1 10 -9 9 -17 0 -12 8 -15 33 -12 18 2
33 8 33 12 0 7 -26 22 -42 24 -3 1 -10 4 -14 9 -12 12 -44 8 -45 -5z"/>
<path d="M1252 2123 c3 -13 11 -17 33 -15 27 2 28 1 13 -11 -13 -10 -15 -16
-6 -25 7 -7 18 -12 26 -12 8 0 25 -9 39 -20 24 -19 63 -27 63 -14 0 22 -46 64
-87 78 -26 9 -56 22 -66 27 -15 8 -18 7 -15 -8z"/>
<path d="M1181 2110 c-21 -18 -22 -20 -4 -20 11 0 28 9 38 20 24 27 -1 27 -34
0z"/>
<path d="M770 1678 c-7 -16 -17 -28 -22 -28 -4 0 -8 -4 -8 -10 0 -5 8 -6 18
-3 14 6 15 4 5 -8 -10 -12 1 -14 70 -15 99 -2 118 -4 135 -17 8 -6 12 -6 12 3
0 9 4 9 17 -1 15 -13 15 -12 0 18 -13 24 -14 33 -4 36 6 2 9 8 5 12 -4 4 -15
4 -25 0 -10 -5 -22 -7 -27 -6 -29 7 -98 2 -129 -10 -40 -14 -57 -8 -37 15 6 9
10 21 7 28 -3 8 -10 2 -17 -14z"/>
<path d="M1305 1689 c-15 -5 -32 -6 -38 -2 -16 10 -58 -19 -52 -37 6 -20 -24
-61 -31 -42 -3 6 -15 11 -27 11 -16 -1 -18 -2 -5 -6 21 -5 27 -41 12 -71 -12
-24 -8 -62 7 -62 5 0 9 3 9 8 1 4 5 26 9 50 6 29 5 42 -3 43 -6 0 18 12 54 26
80 32 191 45 210 25 8 -9 16 -10 22 -4 7 7 2 19 -15 36 -24 24 -25 24 -30 4
-6 -20 -6 -20 -49 4 -33 18 -51 22 -73 17z"/>
<path d="M1355 1571 c11 -4 33 -12 49 -17 16 -5 31 -15 34 -22 3 -11 0 -12
-17 -2 -34 18 -136 14 -170 -6 -17 -10 -33 -24 -35 -31 -8 -19 5 -16 31 9 l23
21 24 -26 c14 -15 29 -27 34 -27 13 0 42 34 42 50 0 10 3 10 15 0 8 -7 12 -17
8 -23 -3 -6 -1 -7 5 -3 8 4 16 -3 22 -18 5 -14 12 -26 15 -26 4 0 3 5 0 10 -3
6 3 23 14 39 12 16 21 33 21 38 0 12 -48 31 -95 38 -28 4 -34 3 -20 -4z"/>
<path d="M1258 1554 c-16 -8 -28 -20 -28 -26 0 -7 4 -7 13 0 7 7 29 18 48 26
23 10 28 15 14 15 -11 0 -32 -7 -47 -15z"/>
<path d="M753 1534 c-18 -9 -33 -21 -33 -26 0 -5 15 -1 33 10 17 11 39 22 47
25 13 5 13 5 0 6 -8 0 -30 -7 -47 -15z"/>
<path d="M897 1537 c51 -19 46 -23 -26 -19 -52 3 -76 0 -102 -14 -19 -10 -36
-18 -39 -17 -3 1 -6 -6 -6 -16 0 -27 39 -20 59 12 17 27 37 29 37 2 0 -29 66
-34 75 -5 8 24 24 25 51 5 27 -20 40 -19 21 3 -8 9 -15 22 -15 27 1 13 -42 35
-67 34 -14 0 -10 -4 12 -12z"/>
<path d="M1266 1450 c13 -12 124 -17 112 -4 -4 3 -32 7 -63 9 -32 2 -54 0 -49
-5z"/>
<path d="M1195 1394 c4 -10 10 -29 12 -41 3 -13 9 -23 14 -23 5 0 9 -6 9 -14
0 -8 5 -16 11 -18 5 -2 13 -22 16 -45 5 -38 3 -42 -23 -57 l-29 -15 26 -1 c59
0 62 52 8 159 -28 57 -63 100 -44 55z"/>
<path d="M941 1238 c-1 -27 29 -68 49 -68 6 0 13 7 17 16 3 8 17 20 31 25 20
8 29 6 46 -10 20 -19 24 -19 61 -5 22 8 48 17 58 21 23 7 22 19 -5 26 -13 4
-31 -1 -46 -14 -31 -24 -50 -24 -77 1 -18 17 -27 19 -47 11 -14 -5 -28 -17
-31 -25 -11 -27 -36 -18 -46 17 -9 31 -9 31 -10 5z"/>
<path d="M1013 1162 c-16 -12 -21 -23 -17 -40 l6 -22 24 25 c23 25 32 55 17
55 -5 0 -18 -8 -30 -18z"/>
<path d="M1160 1165 c0 -7 14 -23 30 -35 17 -12 30 -18 30 -14 0 3 7 1 15 -6
8 -7 21 -10 29 -7 8 3 24 -3 37 -14 12 -10 26 -19 31 -19 4 0 8 -9 8 -20 0
-11 5 -20 10 -20 6 0 10 -7 10 -15 0 -8 4 -15 10 -15 6 0 6 9 0 26 -6 14 -10
38 -10 54 0 23 -3 27 -20 23 -12 -3 -28 1 -38 8 -34 28 -62 40 -62 27 0 -6
-10 -3 -22 9 -31 27 -58 36 -58 18z"/>
<path d="M1080 1131 c0 -32 22 -47 40 -26 8 10 7 13 -7 11 -13 -1 -18 6 -17
22 0 12 -3 22 -8 22 -4 0 -8 -13 -8 -29z"/>
<path d="M946 1132 c-11 -2 -37 -15 -57 -28 -30 -18 -36 -28 -35 -53 2 -37 12
-49 20 -23 4 11 13 23 21 26 8 3 15 12 15 20 0 9 14 18 35 22 19 3 35 12 35
20 0 17 -10 22 -34 16z"/>
<path d="M1090 1033 c-157 -11 -183 -16 -201 -34 -10 -10 -19 -14 -19 -8 0 5
-4 8 -9 5 -5 -3 -7 -20 -5 -38 1 -18 3 -36 3 -40 1 -5 7 -8 15 -8 9 0 12 9 10
28 -8 66 11 71 256 77 208 5 198 4 180 15 -13 9 -120 10 -230 3z"/>
<path d="M1042 919 c-88 -26 31 -40 181 -20 18 2 5 21 -15 21 -13 0 -48 3 -78
5 -30 2 -70 0 -88 -6z"/>
<path d="M931 878 c-11 -28 -3 -39 10 -15 6 9 14 15 20 12 5 -4 9 1 9 9 0 24
-30 19 -39 -6z"/>
<path d="M830 829 c0 -5 4 -9 10 -9 5 0 12 -11 16 -24 3 -15 11 -23 19 -20 7
3 24 -10 39 -28 14 -18 26 -27 26 -20 0 10 4 9 16 -2 8 -9 22 -16 30 -16 8 0
14 -4 14 -9 0 -13 56 -19 76 -8 12 7 15 6 9 -3 -6 -9 2 -11 31 -7 66 9 104 19
104 29 0 5 8 4 19 -1 15 -9 20 -7 24 11 4 12 9 19 13 16 3 -4 17 3 30 15 12
12 30 28 39 36 9 7 14 19 11 26 -3 8 0 16 7 19 7 2 7 5 2 5 -6 1 -34 -20 -62
-46 -65 -59 -142 -87 -225 -80 -31 2 -63 8 -70 14 -7 6 -23 14 -35 17 -13 4
-23 11 -23 16 0 5 -18 19 -40 30 -22 11 -40 24 -40 29 0 5 -9 11 -20 14 -11 3
-20 1 -20 -4z"/>
<path d="M587 1164 c-13 -13 -7 -44 8 -44 16 0 17 5 6 33 -3 10 -10 15 -14 11z"/>
<path d="M1516 740 c29 -57 28 -61 -7 -420 -19 -201 -27 -262 -35 -292 -5 -17
15 -18 324 -18 292 0 331 2 336 16 3 9 6 17 6 19 0 1 -72 2 -160 0 -99 -1
-160 2 -160 8 0 6 -5 6 -12 0 -7 -5 -74 -9 -148 -8 l-135 0 0 50 c1 63 13 230
21 270 3 17 6 45 7 63 0 17 3 32 6 32 4 0 5 33 5 73 -1 39 1 85 3 100 5 28 5
28 26 10 11 -10 17 -12 13 -6 -5 9 -2 11 8 7 9 -3 13 -10 10 -15 -3 -5 0 -9 6
-9 18 0 60 -36 52 -45 -4 -5 -1 -5 6 0 8 4 25 0 40 -12 33 -23 66 -37 57 -23
-3 6 1 7 9 4 9 -3 16 -10 16 -14 0 -4 16 -11 35 -14 22 -5 33 -11 29 -18 -4
-6 -3 -8 3 -5 14 9 74 -3 68 -13 -7 -11 20 -20 56 -20 16 0 29 -4 29 -9 0 -5
19 -12 43 -16 23 -4 48 -12 55 -17 9 -8 12 -5 12 10 0 16 -12 24 -52 38 -238
77 -498 200 -498 234 0 13 -77 90 -90 90 -5 0 2 -22 16 -50z"/>
<path d="M645 728 c-15 -18 -32 -42 -37 -53 -23 -51 -186 -128 -490 -231
l-108 -36 0 -187 c0 -132 4 -191 12 -199 9 -9 103 -12 360 -12 l348 0 -5 28
c-3 15 -12 77 -21 137 -9 61 -20 137 -25 170 -18 121 -21 307 -6 363 8 28 11
52 6 52 -4 0 -19 -15 -34 -32z m-10 -209 c8 -154 12 -215 21 -263 4 -23 7 -45
6 -49 -1 -4 2 -16 7 -25 12 -23 22 -115 13 -129 -5 -7 -57 -11 -150 -10 -116
0 -145 3 -149 14 -5 12 -7 12 -14 1 -10 -15 -267 -22 -305 -8 -21 8 -22 14
-23 159 -1 93 3 152 9 156 6 4 8 10 5 15 -3 5 4 7 15 5 11 -2 18 0 15 5 -7 11
32 23 46 14 8 -5 9 -3 4 6 -6 10 -4 12 8 7 10 -3 17 -3 17 2 0 5 12 11 28 14
46 9 55 12 107 36 28 13 62 24 77 25 16 0 28 4 28 8 0 3 21 14 46 24 25 9 63
30 85 46 22 16 45 26 51 22 7 -4 8 -3 4 4 -4 7 -1 12 7 12 8 0 18 7 21 16 12
30 16 8 21 -107z"/>
<path d="M416 435 c16 -14 36 -25 44 -25 9 1 4 10 -15 25 -40 33 -67 33 -29 0z"/>
<path d="M981 417 c-13 -28 -38 -83 -56 -122 -18 -38 -36 -80 -41 -93 -8 -21
-17 -13 -99 97 -49 66 -90 119 -92 117 -5 -5 28 -66 36 -66 3 0 15 -15 25 -32
24 -41 117 -158 126 -158 8 0 60 120 60 138 0 25 25 6 49 -37 23 -41 23 -47
12 -125 -6 -44 -14 -91 -17 -103 -6 -23 -6 -23 125 -23 131 0 131 0 126 22 -6
27 -37 181 -37 188 -1 12 47 110 54 110 7 0 10 -15 7 -36 0 -4 3 -10 8 -13 5
-3 20 -25 33 -48 13 -24 29 -43 36 -43 7 0 33 28 58 63 25 34 54 74 65 88 12
15 25 40 31 55 12 33 18 41 -79 -96 -35 -49 -69 -90 -75 -90 -6 1 -24 26 -39
58 -16 31 -43 86 -62 122 -18 36 -35 69 -38 75 -2 6 -13 5 -28 -2 l-24 -12 23
0 c13 -1 20 -5 17 -11 -3 -6 -47 -10 -98 -10 -78 1 -89 3 -75 14 16 11 15 26
-1 26 -3 0 -17 -24 -30 -53z m205 -19 c-9 -5 -46 -10 -82 -10 -54 0 -63 -2
-53 -14 7 -9 20 -12 31 -8 11 3 35 6 54 6 19 0 37 4 40 9 9 15 27 10 21 -5 -3
-8 -1 -16 4 -18 11 -4 -8 -65 -25 -84 -6 -6 -19 -9 -30 -6 -13 3 -17 1 -12 -6
4 -7 13 -12 21 -12 23 0 23 -24 -2 -43 -22 -18 -33 -45 -13 -32 17 10 38 -20
51 -69 10 -42 10 -48 -7 -61 -23 -16 -74 -9 -92 14 -11 13 -14 14 -21 2 -5 -8
-16 -11 -25 -8 -12 5 -15 14 -10 34 4 16 11 32 15 38 5 5 9 31 9 57 0 46 1 48
29 48 17 0 32 3 34 8 3 4 -18 6 -47 5 -45 -1 -52 1 -52 18 0 10 4 19 8 19 4 0
8 -5 8 -12 0 -6 3 -8 6 -5 4 4 1 13 -6 22 -7 8 -10 21 -7 30 4 8 0 18 -8 22
-7 5 -15 15 -17 23 -2 8 -7 18 -12 21 -21 16 9 25 90 27 48 1 89 4 92 7 3 2 9
2 15 -2 5 -3 2 -10 -7 -15z"/>
<path d="M1756 456 c-17 -8 -24 -16 -18 -20 11 -6 72 19 72 29 0 8 -24 4 -54
-9z"/>
<path d="M1867 285 c-4 -25 -9 -57 -13 -72 -4 -21 -3 -24 5 -13 11 16 26 118
19 126 -3 2 -8 -16 -11 -41z"/>
<path d="M1830 130 c-7 -28 -10 -53 -8 -55 2 -3 10 18 17 46 7 27 11 52 8 55
-3 3 -10 -18 -17 -46z"/>
</g>
</svg>
